<?xml version="1.0" encoding="utf-8"?>
<!-- Generator: Adobe Illustrator 26.0.1, SVG Export Plug-In . SVG Version: 6.00 Build 0)  -->
<svg version="1.1" id="Layer_1" xmlns="http://www.w3.org/2000/svg" xmlns:xlink="http://www.w3.org/1999/xlink" x="0px" y="0px"
	 viewBox="0 0 512.32 515.11" style="enable-background:new 0 0 512.32 515.11;" xml:space="preserve">
<style type="text/css">
	.st0{fill:#E40127;}
	.st1{fill:#FC013A;}
	.st2{fill:#049C00;}
</style>
<g>
	<g>
		<path class="st0" d="M251.75,9.49c22.53-0.36,44.06,4.3,64.52,13.48c32.14,14.41,56.99,37.03,74.34,67.65
			c9.69,17.1,15.8,35.42,18.6,54.95c4.73,32.96-0.21,64.32-15.27,93.9c-8.85,17.39-19.84,33.58-29.96,50.25
			c-32.41,53.43-64.94,106.79-97.34,160.23c-2.75,4.53-5.74,8.64-10.48,11.21c-1.47,0-2.95,0-4.42,0c0-71.14,0-142.28,0.01-213.42
			c6.54-0.82,13.14-1.14,19.59-2.73c30.79-7.62,53.83-32.99,58.99-65.11c4.82-30.02-9.84-61.84-35.75-78.36
			c-13.13-8.37-27.53-11.99-42.83-12.92C251.75,62.24,251.75,35.86,251.75,9.49z"/>
		<path class="st1" d="M251.75,247.75c0,71.14,0,142.28-0.01,213.42c-1.18,0-2.36,0-3.54,0c-4.51-2.47-7.35-6.37-9.99-10.69
			c-39.97-65.43-79.86-130.91-120.16-196.14c-19.53-31.62-28.37-65.59-24.52-102.54c3.45-33.05,16.21-62.27,38.02-87.44
			c19.12-22.06,42.64-37.64,70.3-46.92c16.15-5.42,32.83-7.94,49.88-7.94c0,26.38,0,52.76,0,79.14c-6.92,0.36-13.84,0.9-20.5,2.91
			c-29.93,9.01-49.64,28.48-56.79,58.84c-6.91,29.32,1.41,55.01,23.19,75.92C212.66,240.7,231.12,247.12,251.75,247.75z"/>
	</g>
	<path class="st2" d="M311.59,408.94c-10.1,16.63-20.21,33.25-30.3,49.88c-3.67,6.04-8.54,12.83-16.96,17.38
		c-2.5,1.36-5.31,2.07-8.16,2.07h-4.42h-3.54c-2.88,0-5.71-0.72-8.23-2.11c-8.11-4.46-12.82-10.98-16.36-16.77l-21.1-34.54
		c-3.26-5.35-6.56-10.68-9.82-16.02c-69.14,7.05-118.78,26.05-118.78,48.46c0,28.4,79.59,51.42,177.78,51.42
		s177.78-23.02,177.78-51.42C429.47,435,380.26,416.06,311.59,408.94z"/>
</g>
</svg>
