<?xml version="1.0" encoding="utf-8"?>
<!-- Generator: Adobe Illustrator 26.0.1, SVG Export Plug-In . SVG Version: 6.00 Build 0)  -->
<svg version="1.1" id="Layer_1" xmlns="http://www.w3.org/2000/svg" xmlns:xlink="http://www.w3.org/1999/xlink" x="0px" y="0px"
	 viewBox="0 0 512.32 515.11" style="enable-background:new 0 0 512.32 515.11;" xml:space="preserve">
<style type="text/css">
	.st0{fill:#0E9F6E;}
</style>
<path class="st0" d="M429.81,7.3H83.15C40.79,7.3,6.13,41.96,6.13,84.32v346.66c0,42.36,34.66,77.02,77.02,77.02h346.66
	c42.36,0,77.02-34.66,77.02-77.02V84.32C506.84,41.96,472.18,7.3,429.81,7.3z M426.88,154.4L241.06,394.55
	c-4.83,6.24-12.12,10.1-19.99,10.61c-0.58,0.04-1.17,0.06-1.74,0.06c-7.26,0-14.27-2.88-19.44-8.05l-111.5-111.5
	c-10.73-10.74-10.73-28.14,0-38.87c10.74-10.73,28.13-10.73,38.87,0l89.42,89.43L383.4,120.75c9.3-12,26.56-14.2,38.56-4.91
	C433.97,125.13,436.17,142.39,426.88,154.4z"/>
</svg>
