<?xml version="1.0" encoding="utf-8"?>
<!-- Generator: Adobe Illustrator 26.0.1, SVG Export Plug-In . SVG Version: 6.00 Build 0)  -->
<svg version="1.1" id="Layer_1" xmlns="http://www.w3.org/2000/svg" xmlns:xlink="http://www.w3.org/1999/xlink" x="0px" y="0px"
	 viewBox="0 0 512.32 515.11" style="enable-background:new 0 0 512.32 515.11;" xml:space="preserve">
<style type="text/css">
	.st0{fill:#046B4D;}
</style>
<path class="st0" d="M255.38,12.11L255.38,12.11C120.1,12.11,9.41,122.8,9.41,258.08v0c0,135.28,110.69,245.97,245.97,245.97h0
	c135.28,0,245.97-110.69,245.97-245.97v0C501.35,122.8,390.66,12.11,255.38,12.11z M412.48,162.89l-171.32,221.4
	c-4.46,5.76-11.17,9.32-18.43,9.78c-0.54,0.03-1.07,0.05-1.61,0.05c-6.7,0-13.15-2.65-17.92-7.42L100.41,283.91
	c-9.89-9.9-9.89-25.94,0-35.84c9.9-9.89,25.93-9.89,35.84,0l82.44,82.44l153.71-198.64c8.57-11.06,24.48-13.09,35.55-4.53
	C419.01,135.91,421.04,151.82,412.48,162.89z"/>
</svg>
